<svg xmlns="http://www.w3.org/2000/svg" width="24" height="24" fill="none" viewBox="0 0 24 24"><g clip-path="url(#prefix__clip0)"><path fill="#6C727C" d="M12.433 12.208l4.19-4.191v2.531a.49.49 0 0 0 .977 0v-3.71a.49.49 0 0 0-.488-.488h-3.71c-.268 0-.488.22-.488.488s.22.488.488.488h2.532l-4.192 4.191a.489.489 0 0 0 .69.69z"/><path stroke="#6C727C" stroke-width="1.3" d="M12.433 12.208l4.19-4.191v2.531a.49.49 0 0 0 .977 0v-3.71a.49.49 0 0 0-.488-.488h-3.71c-.268 0-.488.22-.488.488s.22.488.488.488h2.532l-4.192 4.191a.489.489 0 0 0 .69.69"/><path stroke="#6C727C" stroke-linecap="round" stroke-linejoin="round" stroke-width="2.5" d="M9 7H7v10h10v-2"/></g><defs><clipPath id="prefix__clip0"><path fill="#fff" d="M0 0h24v24H0V0z"/></clipPath></defs></svg>