<svg xmlns="http://www.w3.org/2000/svg" width="24" height="24" fill="none" viewBox="0 0 24 24"><path fill="#9FA6B0" fill-rule="evenodd" d="M12 11.032c.455 0 .893-.066 1.309-.183 1.94-.548 3.357-2.278 3.357-4.333C16.666 4.022 14.576 2 12 2c-.944 0-1.82.273-2.554.74-1.27.806-2.112 2.195-2.112 3.776 0 2.494 2.09 4.516 4.666 4.516zm1.737.695A6.197 6.197 0 0 0 10.8 17a6.19 6.19 0 0 0 2.477 4.958 19.68 19.68 0 0 1-6.141-.568l-.807-.205a3.044 3.044 0 0 1-1.743-1.203v-.001a3.163 3.163 0 0 1-.32-3.101l.022-.053.424-.973a7.023 7.023 0 0 1 2.051-2.676 6.817 6.817 0 0 1 4.261-1.501h1.95c.05 0 .102.004.153.007l.105.007v-.001a7.1 7.1 0 0 1 .505.037zM17 12c-2.762 0-5 2.238-5 5s2.238 5 5 5 5-2.238 5-5-2.238-5-5-5zm2.798 3.844l-3.167 3.436a.658.658 0 0 1-.98.002l-1.448-1.566a.795.795 0 0 1-.001-1.059l.06-.064a.658.658 0 0 1 .98-.002l.9.971 1.554-1.687 1.065-1.156a.655.655 0 0 1 .978 0l.06.064a.8.8 0 0 1 0 1.06z" clip-rule="evenodd"/></svg>